<mxfile host="app.diagrams.net" modified="2024-07-16T17:09:31.292Z" agent="Mozilla/5.0 (Windows NT 10.0; Win64; x64) AppleWebKit/537.36 (KHTML, like Gecko) Chrome/126.0.0.0 Safari/537.36" etag="bQZeWEKIxvA8Ez_6dWKl" version="24.6.5" type="github">
  <diagram id="C5RBs43oDa-KdzZeNtuy" name="Page-1">
    <mxGraphModel dx="950" dy="504" grid="1" gridSize="10" guides="1" tooltips="1" connect="1" arrows="1" fold="1" page="1" pageScale="1" pageWidth="827" pageHeight="1169" math="0" shadow="0">
      <root>
        <mxCell id="WIyWlLk6GJQsqaUBKTNV-0" />
        <mxCell id="WIyWlLk6GJQsqaUBKTNV-1" parent="WIyWlLk6GJQsqaUBKTNV-0" />
        <mxCell id="WIyWlLk6GJQsqaUBKTNV-2" value="" style="rounded=0;html=1;jettySize=auto;orthogonalLoop=1;fontSize=11;endArrow=block;endFill=0;endSize=8;strokeWidth=1;shadow=0;labelBackgroundColor=none;edgeStyle=orthogonalEdgeStyle;" parent="WIyWlLk6GJQsqaUBKTNV-1" source="WIyWlLk6GJQsqaUBKTNV-3" edge="1">
          <mxGeometry relative="1" as="geometry">
            <mxPoint x="220" y="140" as="targetPoint" />
          </mxGeometry>
        </mxCell>
        <mxCell id="WIyWlLk6GJQsqaUBKTNV-3" value="Khởi tạo GPIO" style="rounded=1;whiteSpace=wrap;html=1;fontSize=12;glass=0;strokeWidth=1;shadow=0;" parent="WIyWlLk6GJQsqaUBKTNV-1" vertex="1">
          <mxGeometry x="180" y="70" width="80" height="30" as="geometry" />
        </mxCell>
        <mxCell id="WIyWlLk6GJQsqaUBKTNV-4" value="Yes" style="rounded=0;html=1;jettySize=auto;orthogonalLoop=1;fontSize=11;endArrow=block;endFill=0;endSize=8;strokeWidth=1;shadow=0;labelBackgroundColor=none;edgeStyle=orthogonalEdgeStyle;" parent="WIyWlLk6GJQsqaUBKTNV-1" edge="1">
          <mxGeometry y="20" relative="1" as="geometry">
            <mxPoint as="offset" />
            <mxPoint x="219.94" y="350" as="sourcePoint" />
            <mxPoint x="219.94" y="370" as="targetPoint" />
          </mxGeometry>
        </mxCell>
        <mxCell id="WIyWlLk6GJQsqaUBKTNV-5" value="No" style="edgeStyle=orthogonalEdgeStyle;rounded=0;html=1;jettySize=auto;orthogonalLoop=1;fontSize=11;endArrow=block;endFill=0;endSize=8;strokeWidth=1;shadow=0;labelBackgroundColor=none;" parent="WIyWlLk6GJQsqaUBKTNV-1" edge="1">
          <mxGeometry x="-0.7147" y="-10" relative="1" as="geometry">
            <mxPoint as="offset" />
            <mxPoint x="286.25000000000006" y="324.77" as="sourcePoint" />
            <mxPoint x="296.25000000000006" y="325" as="targetPoint" />
            <Array as="points">
              <mxPoint x="256.25" y="324.77" />
            </Array>
          </mxGeometry>
        </mxCell>
        <mxCell id="WIyWlLk6GJQsqaUBKTNV-6" value="mở camera?" style="rhombus;whiteSpace=wrap;html=1;shadow=0;fontFamily=Helvetica;fontSize=12;align=center;strokeWidth=1;spacing=6;spacingTop=-4;" parent="WIyWlLk6GJQsqaUBKTNV-1" vertex="1">
          <mxGeometry x="183.75" y="300" width="72.5" height="50" as="geometry" />
        </mxCell>
        <mxCell id="WIyWlLk6GJQsqaUBKTNV-7" value="thông báo lỗi&amp;nbsp;" style="rounded=1;whiteSpace=wrap;html=1;fontSize=12;glass=0;strokeWidth=1;shadow=0;" parent="WIyWlLk6GJQsqaUBKTNV-1" vertex="1">
          <mxGeometry x="296.25000000000006" y="312.5" width="120" height="25" as="geometry" />
        </mxCell>
        <mxCell id="WIyWlLk6GJQsqaUBKTNV-11" value="Đọc hình ảnh từ cam" style="rounded=1;whiteSpace=wrap;html=1;fontSize=12;glass=0;strokeWidth=1;shadow=0;" parent="WIyWlLk6GJQsqaUBKTNV-1" vertex="1">
          <mxGeometry x="160" y="370" width="120" height="30" as="geometry" />
        </mxCell>
        <mxCell id="FY4Zewi-IJXw05gdRDmh-0" value="Bắt đầu" style="rounded=1;whiteSpace=wrap;html=1;fontSize=12;glass=0;strokeWidth=1;shadow=0;" parent="WIyWlLk6GJQsqaUBKTNV-1" vertex="1">
          <mxGeometry x="180" y="10" width="80" height="30" as="geometry" />
        </mxCell>
        <mxCell id="FY4Zewi-IJXw05gdRDmh-1" value="" style="rounded=0;html=1;jettySize=auto;orthogonalLoop=1;fontSize=11;endArrow=block;endFill=0;endSize=8;strokeWidth=1;shadow=0;labelBackgroundColor=none;edgeStyle=orthogonalEdgeStyle;" parent="WIyWlLk6GJQsqaUBKTNV-1" edge="1">
          <mxGeometry relative="1" as="geometry">
            <mxPoint x="219.88" y="40" as="sourcePoint" />
            <mxPoint x="219.88" y="70" as="targetPoint" />
            <Array as="points">
              <mxPoint x="219.88" y="50" />
              <mxPoint x="219.88" y="50" />
            </Array>
          </mxGeometry>
        </mxCell>
        <mxCell id="FY4Zewi-IJXw05gdRDmh-3" value="Tải mô hình và nhãn" style="rounded=1;whiteSpace=wrap;html=1;fontSize=12;glass=0;strokeWidth=1;shadow=0;" parent="WIyWlLk6GJQsqaUBKTNV-1" vertex="1">
          <mxGeometry x="160" y="140" width="120" height="30" as="geometry" />
        </mxCell>
        <mxCell id="FY4Zewi-IJXw05gdRDmh-4" value="Mở một thread khác để điều khiển đèn" style="rounded=1;whiteSpace=wrap;html=1;fontSize=12;glass=0;strokeWidth=1;shadow=0;" parent="WIyWlLk6GJQsqaUBKTNV-1" vertex="1">
          <mxGeometry x="160" y="190" width="120" height="40" as="geometry" />
        </mxCell>
        <mxCell id="FY4Zewi-IJXw05gdRDmh-5" value="" style="rounded=0;html=1;jettySize=auto;orthogonalLoop=1;fontSize=11;endArrow=block;endFill=0;endSize=8;strokeWidth=1;shadow=0;labelBackgroundColor=none;edgeStyle=orthogonalEdgeStyle;" parent="WIyWlLk6GJQsqaUBKTNV-1" edge="1">
          <mxGeometry relative="1" as="geometry">
            <mxPoint x="220" y="170" as="sourcePoint" />
            <mxPoint x="219.84" y="190" as="targetPoint" />
          </mxGeometry>
        </mxCell>
        <mxCell id="FY4Zewi-IJXw05gdRDmh-6" value="Truy cập vào camera" style="rounded=1;whiteSpace=wrap;html=1;fontSize=12;glass=0;strokeWidth=1;shadow=0;" parent="WIyWlLk6GJQsqaUBKTNV-1" vertex="1">
          <mxGeometry x="160" y="250" width="120" height="30" as="geometry" />
        </mxCell>
        <mxCell id="FY4Zewi-IJXw05gdRDmh-8" value="" style="rounded=0;html=1;jettySize=auto;orthogonalLoop=1;fontSize=11;endArrow=block;endFill=0;endSize=8;strokeWidth=1;shadow=0;labelBackgroundColor=none;edgeStyle=orthogonalEdgeStyle;" parent="WIyWlLk6GJQsqaUBKTNV-1" edge="1">
          <mxGeometry relative="1" as="geometry">
            <mxPoint x="220" y="230" as="sourcePoint" />
            <mxPoint x="219.84" y="250" as="targetPoint" />
          </mxGeometry>
        </mxCell>
        <mxCell id="FY4Zewi-IJXw05gdRDmh-9" value="" style="rounded=0;html=1;jettySize=auto;orthogonalLoop=1;fontSize=11;endArrow=block;endFill=0;endSize=8;strokeWidth=1;shadow=0;labelBackgroundColor=none;edgeStyle=orthogonalEdgeStyle;" parent="WIyWlLk6GJQsqaUBKTNV-1" edge="1">
          <mxGeometry relative="1" as="geometry">
            <mxPoint x="220.1" y="280" as="sourcePoint" />
            <mxPoint x="219.94" y="300" as="targetPoint" />
          </mxGeometry>
        </mxCell>
        <mxCell id="FY4Zewi-IJXw05gdRDmh-11" value="Yes" style="rounded=0;html=1;jettySize=auto;orthogonalLoop=1;fontSize=11;endArrow=block;endFill=0;endSize=8;strokeWidth=1;shadow=0;labelBackgroundColor=none;edgeStyle=orthogonalEdgeStyle;" parent="WIyWlLk6GJQsqaUBKTNV-1" edge="1">
          <mxGeometry y="20" relative="1" as="geometry">
            <mxPoint as="offset" />
            <mxPoint x="219.94" y="470" as="sourcePoint" />
            <mxPoint x="219.94" y="490" as="targetPoint" />
          </mxGeometry>
        </mxCell>
        <mxCell id="FY4Zewi-IJXw05gdRDmh-12" value="No" style="edgeStyle=orthogonalEdgeStyle;rounded=0;html=1;jettySize=auto;orthogonalLoop=1;fontSize=11;endArrow=block;endFill=0;endSize=8;strokeWidth=1;shadow=0;labelBackgroundColor=none;" parent="WIyWlLk6GJQsqaUBKTNV-1" edge="1">
          <mxGeometry x="-0.7147" y="-10" relative="1" as="geometry">
            <mxPoint as="offset" />
            <mxPoint x="286.25000000000006" y="444.77" as="sourcePoint" />
            <mxPoint x="296.25000000000006" y="445" as="targetPoint" />
            <Array as="points">
              <mxPoint x="256.25" y="444.77" />
            </Array>
          </mxGeometry>
        </mxCell>
        <mxCell id="FY4Zewi-IJXw05gdRDmh-13" value="đọc frame?" style="rhombus;whiteSpace=wrap;html=1;shadow=0;fontFamily=Helvetica;fontSize=12;align=center;strokeWidth=1;spacing=6;spacingTop=-4;" parent="WIyWlLk6GJQsqaUBKTNV-1" vertex="1">
          <mxGeometry x="176.88" y="420" width="86.25" height="50" as="geometry" />
        </mxCell>
        <mxCell id="FY4Zewi-IJXw05gdRDmh-14" value="thông báo lỗi&amp;nbsp;" style="rounded=1;whiteSpace=wrap;html=1;fontSize=12;glass=0;strokeWidth=1;shadow=0;" parent="WIyWlLk6GJQsqaUBKTNV-1" vertex="1">
          <mxGeometry x="296.25000000000006" y="432.5" width="120" height="25" as="geometry" />
        </mxCell>
        <mxCell id="FY4Zewi-IJXw05gdRDmh-15" value="&amp;nbsp;xử lý hình ảnh" style="rounded=1;whiteSpace=wrap;html=1;fontSize=12;glass=0;strokeWidth=1;shadow=0;" parent="WIyWlLk6GJQsqaUBKTNV-1" vertex="1">
          <mxGeometry x="180" y="490" width="80" height="30" as="geometry" />
        </mxCell>
        <mxCell id="FY4Zewi-IJXw05gdRDmh-16" value="" style="rounded=0;html=1;jettySize=auto;orthogonalLoop=1;fontSize=11;endArrow=block;endFill=0;endSize=8;strokeWidth=1;shadow=0;labelBackgroundColor=none;edgeStyle=orthogonalEdgeStyle;" parent="WIyWlLk6GJQsqaUBKTNV-1" edge="1">
          <mxGeometry relative="1" as="geometry">
            <mxPoint x="220.1" y="400" as="sourcePoint" />
            <mxPoint x="219.94" y="420" as="targetPoint" />
          </mxGeometry>
        </mxCell>
        <mxCell id="FY4Zewi-IJXw05gdRDmh-17" value="ngắt cam, giải phòng GPIO" style="rounded=1;whiteSpace=wrap;html=1;fontSize=12;glass=0;strokeWidth=1;shadow=0;" parent="WIyWlLk6GJQsqaUBKTNV-1" vertex="1">
          <mxGeometry x="296.25000000000006" y="477.5" width="120" height="40" as="geometry" />
        </mxCell>
        <mxCell id="FY4Zewi-IJXw05gdRDmh-18" value="" style="rounded=0;html=1;jettySize=auto;orthogonalLoop=1;fontSize=11;endArrow=block;endFill=0;endSize=8;strokeWidth=1;shadow=0;labelBackgroundColor=none;edgeStyle=orthogonalEdgeStyle;" parent="WIyWlLk6GJQsqaUBKTNV-1" edge="1">
          <mxGeometry relative="1" as="geometry">
            <mxPoint x="356.25000000000006" y="457.5" as="sourcePoint" />
            <mxPoint x="356.0900000000001" y="477.5" as="targetPoint" />
          </mxGeometry>
        </mxCell>
        <mxCell id="FY4Zewi-IJXw05gdRDmh-20" value="cập nhật đèn" style="rounded=1;whiteSpace=wrap;html=1;fontSize=12;glass=0;strokeWidth=1;shadow=0;" parent="WIyWlLk6GJQsqaUBKTNV-1" vertex="1">
          <mxGeometry x="180" y="540" width="80" height="30" as="geometry" />
        </mxCell>
        <mxCell id="FY4Zewi-IJXw05gdRDmh-22" value="hiện frame" style="rounded=1;whiteSpace=wrap;html=1;fontSize=12;glass=0;strokeWidth=1;shadow=0;" parent="WIyWlLk6GJQsqaUBKTNV-1" vertex="1">
          <mxGeometry x="180" y="590" width="80" height="30" as="geometry" />
        </mxCell>
        <mxCell id="FY4Zewi-IJXw05gdRDmh-24" value="" style="rounded=0;html=1;jettySize=auto;orthogonalLoop=1;fontSize=11;endArrow=block;endFill=0;endSize=8;strokeWidth=1;shadow=0;labelBackgroundColor=none;edgeStyle=orthogonalEdgeStyle;" parent="WIyWlLk6GJQsqaUBKTNV-1" edge="1">
          <mxGeometry relative="1" as="geometry">
            <mxPoint x="220.04999999999998" y="520" as="sourcePoint" />
            <mxPoint x="219.89" y="540" as="targetPoint" />
          </mxGeometry>
        </mxCell>
        <mxCell id="FY4Zewi-IJXw05gdRDmh-25" value="" style="rounded=0;html=1;jettySize=auto;orthogonalLoop=1;fontSize=11;endArrow=block;endFill=0;endSize=8;strokeWidth=1;shadow=0;labelBackgroundColor=none;edgeStyle=orthogonalEdgeStyle;" parent="WIyWlLk6GJQsqaUBKTNV-1" edge="1">
          <mxGeometry relative="1" as="geometry">
            <mxPoint x="220.04999999999998" y="570" as="sourcePoint" />
            <mxPoint x="219.89" y="590" as="targetPoint" />
          </mxGeometry>
        </mxCell>
        <mxCell id="FY4Zewi-IJXw05gdRDmh-26" value="Yes" style="rounded=0;html=1;jettySize=auto;orthogonalLoop=1;fontSize=11;endArrow=block;endFill=0;endSize=8;strokeWidth=1;shadow=0;labelBackgroundColor=none;edgeStyle=orthogonalEdgeStyle;" parent="WIyWlLk6GJQsqaUBKTNV-1" edge="1">
          <mxGeometry x="-0.9048" y="10" relative="1" as="geometry">
            <mxPoint as="offset" />
            <mxPoint x="219.94" y="700" as="sourcePoint" />
            <mxPoint x="360.00000000000006" y="520" as="targetPoint" />
            <Array as="points">
              <mxPoint x="220" y="720" />
              <mxPoint x="360.00000000000006" y="720" />
            </Array>
          </mxGeometry>
        </mxCell>
        <mxCell id="FY4Zewi-IJXw05gdRDmh-28" value="nhận được &#39;q&#39;?" style="rhombus;whiteSpace=wrap;html=1;shadow=0;fontFamily=Helvetica;fontSize=12;align=center;strokeWidth=1;spacing=6;spacingTop=-4;" parent="WIyWlLk6GJQsqaUBKTNV-1" vertex="1">
          <mxGeometry x="165" y="640" width="110" height="60" as="geometry" />
        </mxCell>
        <mxCell id="FY4Zewi-IJXw05gdRDmh-29" value="" style="rounded=0;html=1;jettySize=auto;orthogonalLoop=1;fontSize=11;endArrow=block;endFill=0;endSize=8;strokeWidth=1;shadow=0;labelBackgroundColor=none;edgeStyle=orthogonalEdgeStyle;" parent="WIyWlLk6GJQsqaUBKTNV-1" edge="1">
          <mxGeometry relative="1" as="geometry">
            <mxPoint x="220.1" y="620" as="sourcePoint" />
            <mxPoint x="219.94" y="640" as="targetPoint" />
          </mxGeometry>
        </mxCell>
        <mxCell id="FY4Zewi-IJXw05gdRDmh-31" value="No" style="edgeStyle=orthogonalEdgeStyle;rounded=0;html=1;jettySize=auto;orthogonalLoop=1;fontSize=11;endArrow=block;endFill=0;endSize=8;strokeWidth=1;shadow=0;labelBackgroundColor=none;exitX=0;exitY=0.5;exitDx=0;exitDy=0;entryX=0;entryY=0.5;entryDx=0;entryDy=0;" parent="WIyWlLk6GJQsqaUBKTNV-1" source="FY4Zewi-IJXw05gdRDmh-28" target="FY4Zewi-IJXw05gdRDmh-15" edge="1">
          <mxGeometry x="-0.8966" y="-10" relative="1" as="geometry">
            <mxPoint as="offset" />
            <mxPoint x="139.98" y="669.77" as="sourcePoint" />
            <mxPoint x="110" y="437.0093485514323" as="targetPoint" />
            <Array as="points">
              <mxPoint x="140" y="670" />
              <mxPoint x="140" y="505" />
            </Array>
          </mxGeometry>
        </mxCell>
        <mxCell id="nw6m5WyESuy3EJGYJmpJ-1" value="Kết thúc" style="edgeStyle=orthogonalEdgeStyle;rounded=0;html=1;jettySize=auto;orthogonalLoop=1;fontSize=11;endArrow=block;endFill=0;endSize=8;strokeWidth=1;shadow=0;labelBackgroundColor=none;" parent="WIyWlLk6GJQsqaUBKTNV-1" edge="1">
          <mxGeometry x="1" y="24" relative="1" as="geometry">
            <mxPoint x="24" y="24" as="offset" />
            <mxPoint x="446.21000000000004" y="497.01" as="sourcePoint" />
            <mxPoint x="456.21000000000004" y="497.24" as="targetPoint" />
            <Array as="points">
              <mxPoint x="416.21000000000004" y="497.01" />
            </Array>
          </mxGeometry>
        </mxCell>
        <mxCell id="nw6m5WyESuy3EJGYJmpJ-2" value="Kết thúc" style="edgeStyle=orthogonalEdgeStyle;rounded=0;html=1;jettySize=auto;orthogonalLoop=1;fontSize=11;endArrow=block;endFill=0;endSize=8;strokeWidth=1;shadow=0;labelBackgroundColor=none;" parent="WIyWlLk6GJQsqaUBKTNV-1" edge="1">
          <mxGeometry x="1" y="24" relative="1" as="geometry">
            <mxPoint x="24" y="24" as="offset" />
            <mxPoint x="446.2300000000001" y="324.81" as="sourcePoint" />
            <mxPoint x="456.2300000000001" y="325.04" as="targetPoint" />
            <Array as="points">
              <mxPoint x="416.2300000000001" y="324.81" />
            </Array>
          </mxGeometry>
        </mxCell>
        <mxCell id="nw6m5WyESuy3EJGYJmpJ-3" value="Bắt đầu" style="rounded=1;whiteSpace=wrap;html=1;fontSize=12;glass=0;strokeWidth=1;shadow=0;" parent="WIyWlLk6GJQsqaUBKTNV-1" vertex="1">
          <mxGeometry x="560" y="10" width="80" height="30" as="geometry" />
        </mxCell>
        <mxCell id="nw6m5WyESuy3EJGYJmpJ-4" value="" style="rounded=0;html=1;jettySize=auto;orthogonalLoop=1;fontSize=11;endArrow=block;endFill=0;endSize=8;strokeWidth=1;shadow=0;labelBackgroundColor=none;edgeStyle=orthogonalEdgeStyle;" parent="WIyWlLk6GJQsqaUBKTNV-1" edge="1">
          <mxGeometry relative="1" as="geometry">
            <mxPoint x="599.8399999999999" y="40" as="sourcePoint" />
            <mxPoint x="600" y="60" as="targetPoint" />
            <Array as="points">
              <mxPoint x="599.8399999999999" y="50" />
              <mxPoint x="599.8399999999999" y="50" />
            </Array>
          </mxGeometry>
        </mxCell>
        <mxCell id="nw6m5WyESuy3EJGYJmpJ-5" value="Yes" style="rounded=0;html=1;jettySize=auto;orthogonalLoop=1;fontSize=11;endArrow=block;endFill=0;endSize=8;strokeWidth=1;shadow=0;labelBackgroundColor=none;edgeStyle=orthogonalEdgeStyle;" parent="WIyWlLk6GJQsqaUBKTNV-1" edge="1">
          <mxGeometry y="20" relative="1" as="geometry">
            <mxPoint as="offset" />
            <mxPoint x="599.94" y="170" as="sourcePoint" />
            <mxPoint x="599.94" y="190" as="targetPoint" />
          </mxGeometry>
        </mxCell>
        <mxCell id="nw6m5WyESuy3EJGYJmpJ-6" value="No" style="edgeStyle=orthogonalEdgeStyle;rounded=0;html=1;jettySize=auto;orthogonalLoop=1;fontSize=11;endArrow=block;endFill=0;endSize=8;strokeWidth=1;shadow=0;labelBackgroundColor=none;" parent="WIyWlLk6GJQsqaUBKTNV-1" edge="1">
          <mxGeometry x="-0.7147" y="-10" relative="1" as="geometry">
            <mxPoint as="offset" />
            <mxPoint x="682.5" y="139.67" as="sourcePoint" />
            <mxPoint x="692.5" y="139.9" as="targetPoint" />
            <Array as="points">
              <mxPoint x="652.5" y="139.67" />
            </Array>
          </mxGeometry>
        </mxCell>
        <mxCell id="nw6m5WyESuy3EJGYJmpJ-7" value="&lt;font style=&quot;font-size: 11px;&quot;&gt;trạng thái thay đổi?&lt;/font&gt;" style="rhombus;whiteSpace=wrap;html=1;shadow=0;fontFamily=Helvetica;fontSize=12;align=center;strokeWidth=1;spacing=6;spacingTop=-4;" parent="WIyWlLk6GJQsqaUBKTNV-1" vertex="1">
          <mxGeometry x="547.5" y="110" width="105" height="60" as="geometry" />
        </mxCell>
        <mxCell id="nw6m5WyESuy3EJGYJmpJ-8" value="chờ 20ms" style="rounded=1;whiteSpace=wrap;html=1;fontSize=12;glass=0;strokeWidth=1;shadow=0;" parent="WIyWlLk6GJQsqaUBKTNV-1" vertex="1">
          <mxGeometry x="692.5" y="127.5" width="67.5" height="25" as="geometry" />
        </mxCell>
        <mxCell id="nw6m5WyESuy3EJGYJmpJ-9" value="cập nhật trạng thái" style="rounded=1;whiteSpace=wrap;html=1;fontSize=12;glass=0;strokeWidth=1;shadow=0;" parent="WIyWlLk6GJQsqaUBKTNV-1" vertex="1">
          <mxGeometry x="540" y="190" width="120" height="30" as="geometry" />
        </mxCell>
        <mxCell id="nw6m5WyESuy3EJGYJmpJ-10" value="kiểm tra trạng thái LED" style="rounded=1;whiteSpace=wrap;html=1;fontSize=12;glass=0;strokeWidth=1;shadow=0;" parent="WIyWlLk6GJQsqaUBKTNV-1" vertex="1">
          <mxGeometry x="540" y="60" width="120" height="30" as="geometry" />
        </mxCell>
        <mxCell id="nw6m5WyESuy3EJGYJmpJ-11" value="" style="rounded=0;html=1;jettySize=auto;orthogonalLoop=1;fontSize=11;endArrow=block;endFill=0;endSize=8;strokeWidth=1;shadow=0;labelBackgroundColor=none;edgeStyle=orthogonalEdgeStyle;" parent="WIyWlLk6GJQsqaUBKTNV-1" edge="1">
          <mxGeometry relative="1" as="geometry">
            <mxPoint x="600.1" y="90" as="sourcePoint" />
            <mxPoint x="599.94" y="110" as="targetPoint" />
          </mxGeometry>
        </mxCell>
        <mxCell id="nw6m5WyESuy3EJGYJmpJ-18" value="" style="rounded=0;html=1;jettySize=auto;orthogonalLoop=1;fontSize=11;endArrow=block;endFill=0;endSize=8;strokeWidth=1;shadow=0;labelBackgroundColor=none;edgeStyle=orthogonalEdgeStyle;exitX=1;exitY=0.5;exitDx=0;exitDy=0;entryX=1;entryY=0.5;entryDx=0;entryDy=0;" parent="WIyWlLk6GJQsqaUBKTNV-1" source="nw6m5WyESuy3EJGYJmpJ-8" target="nw6m5WyESuy3EJGYJmpJ-10" edge="1">
          <mxGeometry relative="1" as="geometry">
            <mxPoint x="780.2" y="132.5" as="sourcePoint" />
            <mxPoint x="780" y="190" as="targetPoint" />
          </mxGeometry>
        </mxCell>
        <mxCell id="nw6m5WyESuy3EJGYJmpJ-19" value="" style="rounded=0;html=1;jettySize=auto;orthogonalLoop=1;fontSize=11;endArrow=block;endFill=0;endSize=8;strokeWidth=1;shadow=0;labelBackgroundColor=none;edgeStyle=orthogonalEdgeStyle;entryX=0.5;entryY=1;entryDx=0;entryDy=0;exitX=0.5;exitY=1;exitDx=0;exitDy=0;" parent="WIyWlLk6GJQsqaUBKTNV-1" source="nw6m5WyESuy3EJGYJmpJ-9" target="nw6m5WyESuy3EJGYJmpJ-8" edge="1">
          <mxGeometry relative="1" as="geometry">
            <mxPoint x="600.1" y="247.5" as="sourcePoint" />
            <mxPoint x="726.25" y="180" as="targetPoint" />
            <Array as="points">
              <mxPoint x="600" y="230" />
              <mxPoint x="726" y="230" />
            </Array>
          </mxGeometry>
        </mxCell>
      </root>
    </mxGraphModel>
  </diagram>
</mxfile>
